Coordinates																															
version=1																															
nRows=22																															
nColumns=32																															
inDegrees=no																															
																															
"Units are S.I. units (second, meters, Newtons, ...)"																															
"If the header above contains a line with 'inDegrees', this indicates whether rotational values are in degrees (yes) or radians (no)."																															
																															
endheader																															
time	pelvis_tilt	pelvis_list	pelvis_rotation	pelvis_tx	pelvis_ty	pelvis_tz	hip_flexion_r	hip_adduction_r	hip_rotation_r	knee_angle_r	ankle_angle_r	subtalar_angle_r	mtp_angle_r	hip_flexion_l	hip_adduction_l	hip_rotation_l	knee_angle_l	ankle_angle_l	subtalar_angle_l	mtp_angle_l	lumbar_extension	lumbar_bending	lumbar_rotation	arm_flex_r	arm_add_r	arm_rot_r	elbow_flex_r	arm_flex_l	arm_add_l	arm_rot_l	elbow_flex_l
0	-0.131523171	0.060351511	-0.047592012	0.636202999	0.912572481	0.486404001	0.669722937	-0.016959232	-0.137708774	0.169387132	0.136729785	0.076542248	-0.007156266	-0.134246714	0.074698851	0.017842804	0.145705136	0.351847071	0.008980058	-0.304532165	-0.078326358	-0.015658782	-0.103695745	-0.042378046	-0.171492664	-0.110384995	0.515048837	0.358583381	-0.440631025	0.10473417	1.229629563
0.010642857	-0.128027009	0.050450928	-0.04514872	0.638602068	0.910622204	0.487600666	0.665816961	-0.007724421	-0.139632735	0.185360865	0.141045079	0.069599687	-0.01782096	-0.145260153	0.061945614	0.012164357	0.170019521	0.345576409	0.016227966	-0.356439267	-0.078187707	-0.008974884	-0.105507045	-0.047040688	-0.171011882	-0.114911736	0.523701073	0.358490243	-0.444068458	0.10459304	1.23336904
0.021285714	-0.12428118	0.040521076	-0.042615527	0.641141374	0.908746429	0.488791916	0.661517873	0.001448853	-0.140877376	0.203366404	0.146138151	0.061486514	-0.028677779	-0.155512051	0.049181936	0.006384205	0.196404263	0.338613862	0.022420782	-0.407014862	-0.077977472	-0.002178663	-0.107361748	-0.051984332	-0.170540894	-0.119329771	0.531823289	0.357293868	-0.447035888	0.104777581	1.235684554
0.031928571	-0.119947206	0.030556997	-0.03990416	0.644009265	0.907048748	0.489973141	0.656279865	0.010482133	-0.140560269	0.226033885	0.153096287	0.051029494	-0.039934132	-0.163774078	0.036418956	0.000246166	0.22804353	0.330153342	0.026025062	-0.453956238	-0.077603082	0.004842934	-0.109287394	-0.057536032	-0.170096617	-0.123473777	0.538698273	0.353436786	-0.448852986	0.10569734	1.234513612
0.042571429	-0.114900697	0.02047597	-0.037177216	0.647286593	0.905584629	0.491167924	0.649785648	0.019601136	-0.138537724	0.253798985	0.162458818	0.038553389	-0.051113237	-0.169057779	0.023452195	-0.006844634	0.267150664	0.319546975	0.026249952	-0.495894556	-0.07700344	0.01221512	-0.111109359	-0.063587031	-0.169685128	-0.127181489	0.544021917	0.346104209	-0.449106958	0.107337698	1.228512111
0.053214286	-0.109174715	0.010138323	-0.034773107	0.650974859	0.904373551	0.492419565	0.641890815	0.029245794	-0.135202321	0.285511107	0.174348097	0.025431503	-0.061253379	-0.170581856	0.009923466	-0.015707405	0.315163564	0.306262777	0.022861826	-0.532188678	-0.076141383	0.020071963	-0.112512531	-0.069718359	-0.169304365	-0.130297497	0.547795101	0.335039754	-0.447589715	0.109379813	1.216891696
0.063857143	-0.102884587	-0.00066425	-0.033033919	0.655030089	0.903426438	0.493773167	0.632595831	0.039818917	-0.131303804	0.319680013	0.187783941	0.012808533	-0.068932269	-0.168040324	-0.004628615	-0.026976529	0.37218735	0.289364804	0.015729702	-0.56225582	-0.07501437	0.028590355	-0.113191615	-0.075374648	-0.168951514	-0.132722186	0.550175202	0.320419941	-0.444257941	0.111441604	1.199369989
0.0745	-0.096296543	-0.012268847	-0.032301955	0.659324604	0.902739271	0.495276509	0.622170947	0.051644203	-0.128252811	0.354228608	0.199698238	0.0013524	-0.071867413	-0.16202626	-0.020856451	-0.040925	0.435813696	0.267141716	0.004896945	-0.585596485	-0.073685004	0.038028589	-0.112865477	-0.079752223	-0.168622639	-0.134462157	0.551606474	0.303225849	-0.439374855	0.113032052	1.176608712
0.085142857	-0.089690841	-0.025021621	-0.032910951	0.663721794	0.90230648	0.496976641	0.610913333	0.065027995	-0.127520863	0.387033337	0.206824384	-0.008330535	-0.067716316	-0.15322974	-0.039424849	-0.057766786	0.503363635	0.237805712	-0.009583998	-0.601687473	-0.072224506	0.048649013	-0.111262591	-0.082028084	-0.168314083	-0.135536185	0.55256192	0.284525332	-0.43323696	0.113657108	1.149376286
0.095785714	-0.08320318	-0.039002135	-0.034772396	0.668108744	0.902128788	0.498870047	0.598952363	0.07986074	-0.129919544	0.41693037	0.207678434	-0.016024857	-0.05594122	-0.142139909	-0.060552935	-0.076811972	0.572746346	0.200095858	-0.028177833	-0.608380793	-0.070767775	0.060463639	-0.108450153	-0.081801616	-0.168042146	-0.135974417	0.55334206	0.265204842	-0.42608256	0.113275655	1.118467577
0.106428571	-0.076761838	-0.053907432	-0.037191922	0.672406537	0.902215939	0.500880654	0.586176644	0.095436148	-0.135313536	0.444132943	0.203334288	-0.022076095	-0.038593895	-0.128957605	-0.083820347	-0.096073707	0.642714912	0.153507193	-0.052091303	-0.601197115	-0.069541068	0.07312528	-0.10498137	-0.079278266	-0.16785176	-0.135823316	0.553999933	0.245890549	-0.418066453	0.112496467	1.084715408
0.117071429	-0.070279154	-0.069404436	-0.039429126	0.676538974	0.902578301	0.502926843	0.572455659	0.111003121	-0.143491213	0.468959168	0.195069248	-0.026872456	-0.017925677	-0.11385984	-0.108755812	-0.113466953	0.712091385	0.097606488	-0.082577633	-0.575493318	-0.068777135	0.086258436	-0.101446113	-0.074711481	-0.167790006	-0.135130486	0.554568979	0.227187131	-0.409336789	0.111978123	1.048954722
0.127714286	-0.06367932	-0.085085189	-0.040849851	0.680441879	0.903215614	0.504935036	0.557588823	0.125987357	-0.153819281	0.491519027	0.184932598	-0.030711508	3.89E-03	-0.09681547	-0.134686862	-0.127182082	0.780202985	0.033753813	-0.119425981	-0.528832897	-0.068631791	0.099412724	-0.09831337	-0.068511391	-0.167895502	-0.133926994	0.55501929	0.209513546	-0.400015717	0.112322869	1.011910867
0.138357143	-0.056910239	-0.100391985	-0.041032379	0.684075117	0.90410638	0.506847736	0.541235463	0.140168066	-0.164821277	0.511506309	0.176517269	-0.033709569	0.024818498	-0.077377129	-0.160538721	-0.135960163	0.847387045	-0.033104849	-0.159497944	-0.463191709	-0.069107017	0.111988028	-0.095810418	-0.061401431	-0.168189936	-0.132210847	0.55519428	0.1929174	-0.390173392	0.114020304	0.974090074
0.149	-0.049923088	-0.114749433	-0.039581527	0.687401419	0.905226603	0.508609426	0.523039327	0.153366392	-0.174922073	0.528565791	0.17359192	-0.035961681	0.042863906	-0.055049227	-0.185188512	-0.138610358	0.914097854	-0.097597681	-0.199307496	-0.381080015	-0.070186238	0.123366698	-0.094134847	-0.054141552	-0.168692956	-0.12997625	0.554922492	0.177402	-0.379873834	0.117545713	0.935972326
0.159642857	-0.042773774	-0.127612104	-0.036391239	0.690384457	0.906560051	0.510179322	0.502898813	0.165370845	-0.182933814	0.542459065	0.178081509	-0.037630773	0.056920025	-0.029639378	-0.2074605	-0.13453089	0.980033281	-0.154559256	-0.235544842	-0.287160004	-0.071794958	0.13299596	-0.093272747	-0.047313443	-0.169418196	-0.127248144	0.554079625	0.162948375	-0.369193479	0.123164143	0.898001883
0.170285714	-0.035756276	-0.138502691	-0.032012686	0.692990049	0.908108128	0.511550133	0.481291168	0.175895749	-0.188548991	0.553213283	0.187719954	-0.039034084	0.067931654	-1.64E-03	-0.226058799	-0.124459022	1.043171737	-0.199293324	-0.26530081	-0.190985546	-0.07372702	0.140470531	-0.09272943	-0.04109358	-0.170365618	-0.124121337	0.552648569	0.149486905	-0.35823699	0.130662735	0.860541775
0.180928571	-0.029194543	-0.146965441	-0.02708378	0.695185512	0.909874769	0.51271936	0.45876844	0.184647461	-0.191600368	0.560895252	0.199699471	-0.040493355	0.077125625	0.028346093	-0.239703918	-0.10933653	1.101291013	-0.227320815	-0.285840222	-0.102646279	-0.075759614	0.145418721	-0.09194921	-0.0355975	-0.17153328	-0.120697082	0.550629193	0.136939516	-0.347111331	0.139762667	0.82393826
0.191571429	-0.023351601	-0.152796596	-0.022157215	0.696963106	0.911865765	0.513687914	0.435774553	0.191379757	-0.192306619	0.565633052	0.211992252	-0.041981049	0.08570676	0.059796165	-0.247801325	-0.090508466	1.152937745	-0.237324489	-0.29689	-0.029318503	-0.077702046	0.147743096	-0.090489733	-0.030838429	-0.172918912	-0.117009949	0.548066234	0.125197986	-0.335890241	0.150186995	0.788422421
0.202214286	-0.018430417	-0.156037131	-0.017700564	0.698338882	0.914088385	0.514460286	0.412647671	0.195899022	-0.191248149	0.56761313	0.223321182	-0.043139808	0.094837032	0.092222876	-0.250420785	-0.069698945	1.197395329	-0.230995295	-0.300510579	0.024693802	-0.079395291	0.147610757	-0.088019525	-0.0267327	-0.174520127	-0.113031677	0.545047766	0.114126776	-0.324615716	0.161660603	0.754116746
0.212857143	-0.014568508	-0.156908456	-0.014062611	0.699335908	0.916543125	0.515050115	0.389630713	0.198205907	-0.188961935	0.567038426	0.232799794	-0.043592804	0.105132465	0.125208905	-0.248099359	-0.048611927	1.234253819	-0.210759007	-0.299115218	0.058220266	-0.080715389	0.145340855	-0.084308285	-0.023183888	-0.176339295	-0.108733462	0.541688117	0.103616748	-0.313318779	0.173909798	0.721141204
0.2235	-0.011820135	-0.155850342	-0.01143824	0.699980709	0.919219	0.515481275	0.366916874	0.198567981	-0.185850305	0.56420249	0.239862791	-0.043075167	0.115889672	0.158404732	-0.241901833	-0.028768052	1.263360461	-0.179771136	-0.29531008	0.073868791	-0.081601264	0.141438261	-0.079255699	-0.020084968	-0.178388669	-0.104095084	0.538134769	0.093595544	-0.302015498	0.186666682	0.689623687
